<svg width="4209" height="1891" xmlns="http://www.w3.org/2000/svg" xmlns:xlink="http://www.w3.org/1999/xlink" xml:space="preserve" overflow="hidden"><defs><clipPath id="clip0"><rect x="98" y="496" width="4209" height="1891"/></clipPath></defs><g clip-path="url(#clip0)" transform="translate(-98 -496)"><rect x="98" y="496" width="4209" height="1891" fill="#FFFFFF"/><path d="M343 743.002C343 664.577 406.577 601 485.003 601L1053 601C1131.42 601 1195 664.577 1195 743.002L1195 2122C1195 2200.42 1131.42 2264 1053 2264L485.003 2264C406.577 2264 343 2200.42 343 2122Z" fill="#D9D9D9" fill-rule="evenodd"/><path d="M1786 743.002C1786 664.577 1849.58 601 1928 601L2496 601C2574.42 601 2638 664.577 2638 743.002L2638 2122C2638 2200.42 2574.42 2264 2496 2264L1928 2264C1849.58 2264 1786 2200.42 1786 2122Z" fill="#D9D9D9" fill-rule="evenodd"/><path d="M3196 743.002C3196 664.577 3259.58 601 3338 601L3906 601C3984.42 601 4048 664.577 4048 743.002L4048 2122C4048 2200.42 3984.42 2264 3906 2264L3338 2264C3259.58 2264 3196 2200.42 3196 2122Z" fill="#D9D9D9" fill-rule="evenodd"/><text font-family="Inter,Inter_MSFontService,sans-serif" font-weight="700" font-size="64" transform="matrix(1 0 0 1 588.125 686)">Application</text><text font-family="Inter,Inter_MSFontService,sans-serif" font-weight="700" font-size="64" transform="matrix(1 0 0 1 949.062 686)"> </text><text font-family="Inter,Inter_MSFontService,sans-serif" font-weight="700" font-size="64" transform="matrix(1 0 0 1 1928.15 686)">Spotify Accounts </text><text font-family="Inter,Inter_MSFontService,sans-serif" font-weight="700" font-size="64" transform="matrix(1 0 0 1 2080.55 763)">Service</text><text font-family="Inter,Inter_MSFontService,sans-serif" font-weight="700" font-size="64" transform="matrix(1 0 0 1 2319.45 763)"> </text><text font-family="Inter,Inter_MSFontService,sans-serif" font-weight="700" font-size="64" transform="matrix(1 0 0 1 3548.25 686)">User</text><text font-family="Inter,Inter_MSFontService,sans-serif" font-weight="700" font-size="64" transform="matrix(1 0 0 1 3696.06 686)"> </text><rect x="452" y="839" width="644" height="195" fill="#FFFFFF"/><text font-family="Inter,Inter_MSFontService,sans-serif" font-weight="400" font-size="46" transform="matrix(1 0 0 1 496.072 926)">Requests</text><text font-family="Inter,Inter_MSFontService,sans-serif" font-weight="400" font-size="46" transform="matrix(1 0 0 1 698.312 926)"> </text><text font-family="Inter,Inter_MSFontService,sans-serif" font-weight="400" font-size="46" transform="matrix(1 0 0 1 711.489 926)">authorization</text><text font-family="Inter,Inter_MSFontService,sans-serif" font-weight="400" font-size="46" transform="matrix(1 0 0 1 995.083 926)"> </text><text font-family="Inter,Inter_MSFontService,sans-serif" font-weight="400" font-size="46" transform="matrix(1 0 0 1 1008.26 926)">to</text><text font-family="Inter,Inter_MSFontService,sans-serif" font-weight="400" font-size="46" transform="matrix(1 0 0 1 1052.37 926)"> </text><text font-family="Inter,Inter_MSFontService,sans-serif" font-weight="400" font-size="46" transform="matrix(1 0 0 1 643.014 981)">access</text><text font-family="Inter,Inter_MSFontService,sans-serif" font-weight="400" font-size="46" transform="matrix(1 0 0 1 795.41 981)"> </text><text font-family="Inter,Inter_MSFontService,sans-serif" font-weight="400" font-size="46" transform="matrix(1 0 0 1 808.587 981)">data</text><text font-family="Inter,Inter_MSFontService,sans-serif" font-weight="400" font-size="46" transform="matrix(1 0 0 1 905.41 981)"> </text><rect x="449" y="1219" width="644" height="195" fill="#FFFFFF"/><text font-family="Inter,Inter_MSFontService,sans-serif" font-weight="400" font-size="46" transform="matrix(1 0 0 1 552.208 1306)">Request </text><text font-family="Inter,Inter_MSFontService,sans-serif" font-weight="400" font-size="46" transform="matrix(1 0 0 1 743.562 1306)">access</text><text font-family="Inter,Inter_MSFontService,sans-serif" font-weight="400" font-size="46" transform="matrix(1 0 0 1 895.958 1306)"> </text><text font-family="Inter,Inter_MSFontService,sans-serif" font-weight="400" font-size="46" transform="matrix(1 0 0 1 909.135 1306)">and </text><text font-family="Inter,Inter_MSFontService,sans-serif" font-weight="400" font-size="46" transform="matrix(1 0 0 1 625.244 1361)">refresh</text><text font-family="Inter,Inter_MSFontService,sans-serif" font-weight="400" font-size="46" transform="matrix(1 0 0 1 781.077 1361)"> </text><text font-family="Inter,Inter_MSFontService,sans-serif" font-weight="400" font-size="46" transform="matrix(1 0 0 1 794.254 1361)">token</text><text font-family="Inter,Inter_MSFontService,sans-serif" font-weight="400" font-size="46" transform="matrix(1 0 0 1 917.431 1361)"> </text><rect x="449" y="1599" width="644" height="195" fill="#FFFFFF"/><text font-family="Inter,Inter_MSFontService,sans-serif" font-weight="400" font-size="46" transform="matrix(1 0 0 1 552.495 1685)">Use </text><text font-family="Inter,Inter_MSFontService,sans-serif" font-weight="400" font-size="46" transform="matrix(1 0 0 1 650.463 1685)">access</text><text font-family="Inter,Inter_MSFontService,sans-serif" font-weight="400" font-size="46" transform="matrix(1 0 0 1 802.859 1685)"> </text><text font-family="Inter,Inter_MSFontService,sans-serif" font-weight="400" font-size="46" transform="matrix(1 0 0 1 816.036 1685)">token</text><text font-family="Inter,Inter_MSFontService,sans-serif" font-weight="400" font-size="46" transform="matrix(1 0 0 1 939.213 1685)"> </text><text font-family="Inter,Inter_MSFontService,sans-serif" font-weight="400" font-size="46" transform="matrix(1 0 0 1 952.39 1685)">in </text><text font-family="Inter,Inter_MSFontService,sans-serif" font-weight="400" font-size="46" transform="matrix(1 0 0 1 549.057 1740)">requests</text><text font-family="Inter,Inter_MSFontService,sans-serif" font-weight="400" font-size="46" transform="matrix(1 0 0 1 739.265 1740)"> </text><text font-family="Inter,Inter_MSFontService,sans-serif" font-weight="400" font-size="46" transform="matrix(1 0 0 1 752.443 1740)">to</text><text font-family="Inter,Inter_MSFontService,sans-serif" font-weight="400" font-size="46" transform="matrix(1 0 0 1 796.557 1740)"> </text><text font-family="Inter,Inter_MSFontService,sans-serif" font-weight="400" font-size="46" transform="matrix(1 0 0 1 809.734 1740)">Web API</text><text font-family="Inter,Inter_MSFontService,sans-serif" font-weight="400" font-size="46" transform="matrix(1 0 0 1 993.64 1740)"> </text><rect x="449" y="1979" width="644" height="195" fill="#FFFFFF"/><text font-family="Inter,Inter_MSFontService,sans-serif" font-weight="400" font-size="46" transform="matrix(1 0 0 1 544.187 2065)">User </text><text font-family="Inter,Inter_MSFontService,sans-serif" font-weight="400" font-size="46" transform="matrix(1 0 0 1 658.771 2065)">access</text><text font-family="Inter,Inter_MSFontService,sans-serif" font-weight="400" font-size="46" transform="matrix(1 0 0 1 811.166 2065)"> </text><text font-family="Inter,Inter_MSFontService,sans-serif" font-weight="400" font-size="46" transform="matrix(1 0 0 1 824.344 2065)">token</text><text font-family="Inter,Inter_MSFontService,sans-serif" font-weight="400" font-size="46" transform="matrix(1 0 0 1 947.521 2065)"> </text><text font-family="Inter,Inter_MSFontService,sans-serif" font-weight="400" font-size="46" transform="matrix(1 0 0 1 960.698 2065)">in </text><text font-family="Inter,Inter_MSFontService,sans-serif" font-weight="400" font-size="46" transform="matrix(1 0 0 1 549.046 2120)">requests</text><text font-family="Inter,Inter_MSFontService,sans-serif" font-weight="400" font-size="46" transform="matrix(1 0 0 1 739.254 2120)"> </text><text font-family="Inter,Inter_MSFontService,sans-serif" font-weight="400" font-size="46" transform="matrix(1 0 0 1 752.431 2120)">to</text><text font-family="Inter,Inter_MSFontService,sans-serif" font-weight="400" font-size="46" transform="matrix(1 0 0 1 796.546 2120)"> </text><text font-family="Inter,Inter_MSFontService,sans-serif" font-weight="400" font-size="46" transform="matrix(1 0 0 1 809.723 2120)">Web API</text><text font-family="Inter,Inter_MSFontService,sans-serif" font-weight="400" font-size="46" transform="matrix(1 0 0 1 993.629 2120)"> </text><rect x="1887" y="844" width="644" height="195" fill="#FFFFFF"/><text font-family="Inter,Inter_MSFontService,sans-serif" font-weight="400" font-size="46" transform="matrix(1 0 0 1 1997.71 903)">Display </text><text font-family="Inter,Inter_MSFontService,sans-serif" font-weight="400" font-size="46" transform="matrix(1 0 0 1 2169.58 903)">scopes</text><text font-family="Inter,Inter_MSFontService,sans-serif" font-weight="400" font-size="46" transform="matrix(1 0 0 1 2325.99 903)"> </text><text font-family="Inter,Inter_MSFontService,sans-serif" font-weight="400" font-size="46" transform="matrix(1 0 0 1 2339.17 903)">and </text><text font-family="Inter,Inter_MSFontService,sans-serif" font-weight="400" font-size="46" transform="matrix(1 0 0 1 2018.06 958)">prompt </text><text font-family="Inter,Inter_MSFontService,sans-serif" font-weight="400" font-size="46" transform="matrix(1 0 0 1 2188.22 958)">user</text><text font-family="Inter,Inter_MSFontService,sans-serif" font-weight="400" font-size="46" transform="matrix(1 0 0 1 2282.75 958)"> </text><text font-family="Inter,Inter_MSFontService,sans-serif" font-weight="400" font-size="46" transform="matrix(1 0 0 1 2295.92 958)">login</text><text font-family="Inter,Inter_MSFontService,sans-serif" font-weight="400" font-size="46" transform="matrix(1 0 0 1 2400.2 958)"> </text><text font-family="Inter,Inter_MSFontService,sans-serif" font-weight="400" font-size="46" transform="matrix(1 0 0 1 2413.37 958)"> </text><text font-family="Inter,Inter_MSFontService,sans-serif" font-weight="400" font-size="46" transform="matrix(1 0 0 1 2081.08 1013)">(</text><text font-family="Inter,Inter_MSFontService,sans-serif" font-weight="400" font-size="46" transform="matrix(1 0 0 1 2097.7 1013)">if</text><text font-family="Inter,Inter_MSFontService,sans-serif" font-weight="400" font-size="46" transform="matrix(1 0 0 1 2125.2 1013)"> </text><text font-family="Inter,Inter_MSFontService,sans-serif" font-weight="400" font-size="46" transform="matrix(1 0 0 1 2138.37 1013)">required</text><text font-family="Inter,Inter_MSFontService,sans-serif" font-weight="400" font-size="46" transform="matrix(1 0 0 1 2320.56 1013)">)</text><text font-family="Inter,Inter_MSFontService,sans-serif" font-weight="400" font-size="46" transform="matrix(1 0 0 1 2337.17 1013)"> </text><rect x="1887" y="1222" width="644" height="195" fill="#FFFFFF"/><text font-family="Inter,Inter_MSFontService,sans-serif" font-weight="400" font-size="46" transform="matrix(1 0 0 1 1923.23 1309)">Return </text><text font-family="Inter,Inter_MSFontService,sans-serif" font-weight="400" font-size="46" transform="matrix(1 0 0 1 2079.64 1309)">access</text><text font-family="Inter,Inter_MSFontService,sans-serif" font-weight="400" font-size="46" transform="matrix(1 0 0 1 2232.03 1309)"> </text><text font-family="Inter,Inter_MSFontService,sans-serif" font-weight="400" font-size="46" transform="matrix(1 0 0 1 2245.21 1309)">and </text><text font-family="Inter,Inter_MSFontService,sans-serif" font-weight="400" font-size="46" transform="matrix(1 0 0 1 2339.17 1309)">refresh</text><text font-family="Inter,Inter_MSFontService,sans-serif" font-weight="400" font-size="46" transform="matrix(1 0 0 1 2495 1309)"> </text><text font-family="Inter,Inter_MSFontService,sans-serif" font-weight="400" font-size="46" transform="matrix(1 0 0 1 2147.54 1364)">token</text><text font-family="Inter,Inter_MSFontService,sans-serif" font-weight="400" font-size="46" transform="matrix(1 0 0 1 2270.72 1364)"> </text><path d="M1786 1577.5C1786 1544.64 1812.64 1518 1845.5 1518L2578.5 1518C2611.36 1518 2638 1544.64 2638 1577.5L2638 1815.5C2638 1848.36 2611.36 1875 2578.5 1875L1845.5 1875C1812.64 1875 1786 1848.36 1786 1815.5Z" fill-rule="evenodd"/><rect x="1887" y="1600" width="644" height="195" fill="#FFFFFF"/><text font-family="Inter,Inter_MSFontService,sans-serif" font-weight="400" font-size="46" transform="matrix(1 0 0 1 1965.05 1714)">Return </text><text font-family="Inter,Inter_MSFontService,sans-serif" font-weight="400" font-size="46" transform="matrix(1 0 0 1 2121.46 1714)">requested</text><text font-family="Inter,Inter_MSFontService,sans-serif" font-weight="400" font-size="46" transform="matrix(1 0 0 1 2343.18 1714)"> </text><text font-family="Inter,Inter_MSFontService,sans-serif" font-weight="400" font-size="46" transform="matrix(1 0 0 1 2356.36 1714)">data</text><text font-family="Inter,Inter_MSFontService,sans-serif" font-weight="400" font-size="46" transform="matrix(1 0 0 1 2453.18 1714)"> </text><rect x="1887" y="1979" width="644" height="195" fill="#FFFFFF"/><text font-family="Inter,Inter_MSFontService,sans-serif" font-weight="400" font-size="46" transform="matrix(1 0 0 1 1934.4 2093)">Return </text><text font-family="Inter,Inter_MSFontService,sans-serif" font-weight="400" font-size="46" transform="matrix(1 0 0 1 2090.81 2093)">new</text><text font-family="Inter,Inter_MSFontService,sans-serif" font-weight="400" font-size="46" transform="matrix(1 0 0 1 2181.9 2093)"> </text><text font-family="Inter,Inter_MSFontService,sans-serif" font-weight="400" font-size="46" transform="matrix(1 0 0 1 2195.08 2093)">access</text><text font-family="Inter,Inter_MSFontService,sans-serif" font-weight="400" font-size="46" transform="matrix(1 0 0 1 2347.48 2093)"> </text><text font-family="Inter,Inter_MSFontService,sans-serif" font-weight="400" font-size="46" transform="matrix(1 0 0 1 2360.65 2093)">token</text><text font-family="Inter,Inter_MSFontService,sans-serif" font-weight="400" font-size="46" transform="matrix(1 0 0 1 2483.83 2093)"> </text><rect x="3300" y="844" width="644" height="195" fill="#FFFFFF"/><text font-family="Inter,Inter_MSFontService,sans-serif" font-weight="400" font-size="46" transform="matrix(1 0 0 1 3359.47 958)">Log in, </text><text font-family="Inter,Inter_MSFontService,sans-serif" font-weight="400" font-size="46" transform="matrix(1 0 0 1 3516.45 958)">authorize</text><text font-family="Inter,Inter_MSFontService,sans-serif" font-weight="400" font-size="46" transform="matrix(1 0 0 1 3719.26 958)"> </text><text font-family="Inter,Inter_MSFontService,sans-serif" font-weight="400" font-size="46" transform="matrix(1 0 0 1 3732.44 958)">access</text><text font-family="Inter,Inter_MSFontService,sans-serif" font-weight="400" font-size="46" transform="matrix(1 0 0 1 3884.84 958)"> </text><path d="M1417 859C1417 823.102 1446.1 794 1482 794 1517.9 794 1547 823.102 1547 859 1547 894.898 1517.9 924 1482 924 1446.1 924 1417 894.898 1417 859Z" fill="#8AB833" fill-rule="evenodd"/><text fill="#FFFFFF" font-family="Inter,Inter_MSFontService,sans-serif" font-weight="400" font-size="83" transform="matrix(1 0 0 1 1463.19 889)">1</text><text fill="#FFFFFF" font-family="Inter,Inter_MSFontService,sans-serif" font-weight="400" font-size="83" transform="matrix(1 0 0 1 1501.57 889)"> </text><path d="M1417 1237C1417 1201.1 1446.1 1172 1482 1172 1517.9 1172 1547 1201.1 1547 1237 1547 1272.9 1517.9 1302 1482 1302 1446.1 1302 1417 1272.9 1417 1237Z" fill="#8AB833" fill-rule="evenodd"/><text fill="#FFFFFF" font-family="Inter,Inter_MSFontService,sans-serif" font-weight="400" font-size="83" transform="matrix(1 0 0 1 1457.46 1267)">2</text><text fill="#FFFFFF" font-family="Inter,Inter_MSFontService,sans-serif" font-weight="400" font-size="83" transform="matrix(1 0 0 1 1507.3 1267)"> </text><path d="M1417 1618C1417 1582.1 1446.1 1553 1482 1553 1517.9 1553 1547 1582.1 1547 1618 1547 1653.9 1517.9 1683 1482 1683 1446.1 1683 1417 1653.9 1417 1618Z" fill="#8AB833" fill-rule="evenodd"/><text fill="#FFFFFF" font-family="Inter,Inter_MSFontService,sans-serif" font-weight="400" font-size="83" transform="matrix(1 0 0 1 1456.02 1647)">3</text><text fill="#FFFFFF" font-family="Inter,Inter_MSFontService,sans-serif" font-weight="400" font-size="83" transform="matrix(1 0 0 1 1508.73 1647)"> </text><path d="M1417 1998C1417 1962.1 1446.1 1933 1482 1933 1517.9 1933 1547 1962.1 1547 1998 1547 2033.9 1517.9 2063 1482 2063 1446.1 2063 1417 2033.9 1417 1998Z" fill="#8AB833" fill-rule="evenodd"/><text fill="#FFFFFF" font-family="Inter,Inter_MSFontService,sans-serif" font-weight="400" font-size="83" transform="matrix(1 0 0 1 1456.02 2027)">4</text><text fill="#FFFFFF" font-family="Inter,Inter_MSFontService,sans-serif" font-weight="400" font-size="83" transform="matrix(1 0 0 1 1508.73 2027)"> </text><path d="M0 0 321.095 0.000360892" stroke="#549E39" stroke-width="6.875" stroke-miterlimit="8" fill="none" fill-rule="evenodd" transform="matrix(-1 0 0 1 1417.59 859.5)"/><path d="M1418.14 1237.78 1094.5 1237.5" stroke="#549E39" stroke-width="6.875" stroke-miterlimit="8" fill="none" fill-rule="evenodd"/><path d="M0 0 325.719 1.24111" stroke="#549E39" stroke-width="6.875" stroke-miterlimit="8" fill="none" fill-rule="evenodd" transform="matrix(-1 0 0 1 1418.22 1618.5)"/><path d="M0 0 324.292 0.000360892" stroke="#549E39" stroke-width="6.875" stroke-miterlimit="8" fill="none" fill-rule="evenodd" transform="matrix(-1 0 0 1 1417.79 1998.5)"/><path d="M1547.5 856.062 1860.06 856.063 1860.06 862.938 1547.5 862.937ZM1855.47 845.75 1882.97 859.5 1855.47 873.25Z" fill="#549E39"/><path d="M1547.52 1234.06 1859.72 1235.74 1859.68 1242.61 1547.48 1240.94ZM1855.19 1225.4 1882.61 1239.3 1855.04 1252.9Z" fill="#549E39"/><path d="M1547.5 1615.06 1859.7 1615.06 1859.7 1621.94 1547.5 1621.94ZM1855.11 1604.75 1882.61 1618.5 1855.11 1632.25Z" fill="#549E39"/><path d="M1547.51 1995.06 1853.48 1995.7 1853.46 2002.57 1547.49 2001.94ZM1848.92 1985.38 1876.39 1999.18 1848.86 2012.88Z" fill="#549E39"/><path d="M1885.36 2158.23 1118.42 2157.95 1118.42 2151.07 1885.36 2151.35ZM1122.99 2168.26 1095.5 2154.5 1123.01 2140.76Z" fill="#549E39"/><path d="M1.56569e-06-3.4375 769.429-3.43715 769.429 3.43785-1.56569e-06 3.4375ZM764.845-13.7497 792.345 0.000360892 764.845 13.7503Z" fill="#549E39" transform="matrix(-1 0 0 1 1887.85 1774.5)"/><path d="M0.00806186-3.43749 741.724-1.69796 741.707 5.17702-0.00806186 3.43749ZM737.165-12.0212 764.633 1.79327 737.101 15.4787Z" fill="#549E39" transform="matrix(1 0 0 -1 2531.5 863.293)"/><path d="M3625.74 1039.5 3625.74 1133.14 771.5 1133.14 774.937 1129.7 774.937 1196.99 768.062 1196.99 768.062 1126.27 3622.31 1126.27 3618.87 1129.7 3618.87 1039.5ZM785.25 1192.41 771.5 1219.91 757.75 1192.41Z" fill="#549E39"/><path d="M2212.7 1417.5 2212.7 1474.53 771.5 1474.53 774.937 1471.1 774.937 1576.49 768.062 1576.49 768.062 1467.66 2209.27 1467.66 2205.83 1471.1 2205.83 1417.5ZM785.25 1571.91 771.5 1599.41 757.75 1571.91Z" fill="#549E39"/><path d="M2212.7 1795.5 2212.7 1802.38 2205.83 1802.38 2205.83 1795.5ZM2212.7 1809.25 2212.7 1816.13 2205.83 1816.13 2205.83 1809.25ZM2212.7 1823 2212.7 1829.88 2205.83 1829.88 2205.83 1823ZM2212.7 1836.75 2212.7 1843.63 2205.83 1843.63 2205.83 1836.75ZM2212.7 1850.5 2212.7 1857.38 2205.83 1857.38 2205.83 1850.5ZM2212.7 1864.25 2212.7 1871.13 2205.83 1871.13 2205.83 1864.25ZM2212.7 1878 2212.7 1884.88 2205.83 1884.88 2205.83 1878ZM2212.7 1891.75 2212.7 1898.63 2205.83 1898.63 2205.83 1891.75ZM2212.7 1905.5 2212.7 1912.38 2205.83 1912.38 2205.83 1905.5ZM2212.7 1919.25 2212.7 1928 2207.71 1928 2207.71 1921.13 2209.27 1921.13 2205.83 1924.56 2205.83 1919.25ZM2200.83 1928 2193.96 1928 2193.96 1921.13 2200.83 1921.13ZM2187.08 1928 2180.21 1928 2180.21 1921.13 2187.08 1921.13ZM2173.33 1928 2166.46 1928 2166.46 1921.13 2173.33 1921.13ZM2159.58 1928 2152.71 1928 2152.71 1921.13 2159.58 1921.13ZM2145.83 1928 2138.96 1928 2138.96 1921.13 2145.83 1921.13ZM2132.08 1928 2125.21 1928 2125.21 1921.13 2132.08 1921.13ZM2118.33 1928 2111.46 1928 2111.46 1921.13 2118.33 1921.13ZM2104.58 1928 2097.71 1928 2097.71 1921.13 2104.58 1921.13ZM2090.83 1928 2083.96 1928 2083.96 1921.13 2090.83 1921.13ZM2077.08 1928 2070.21 1928 2070.21 1921.13 2077.08 1921.13ZM2063.33 1928 2056.46 1928 2056.46 1921.13 2063.33 1921.13ZM2049.58 1928 2042.71 1928 2042.71 1921.13 2049.58 1921.13ZM2035.83 1928 2028.96 1928 2028.96 1921.13 2035.83 1921.13ZM2022.08 1928 2015.21 1928 2015.21 1921.13 2022.08 1921.13ZM2008.33 1928 2001.46 1928 2001.46 1921.13 2008.33 1921.13ZM1994.58 1928 1987.71 1928 1987.71 1921.13 1994.58 1921.13ZM1980.83 1928 1973.96 1928 1973.96 1921.13 1980.83 1921.13ZM1967.08 1928 1960.21 1928 1960.21 1921.13 1967.08 1921.13ZM1953.33 1928 1946.46 1928 1946.46 1921.13 1953.33 1921.13ZM1939.58 1928 1932.71 1928 1932.71 1921.13 1939.58 1921.13ZM1925.83 1928 1918.96 1928 1918.96 1921.13 1925.83 1921.13ZM1912.08 1928 1905.21 1928 1905.21 1921.13 1912.08 1921.13ZM1898.33 1928 1891.46 1928 1891.46 1921.13 1898.33 1921.13ZM1884.58 1928 1877.71 1928 1877.71 1921.13 1884.58 1921.13ZM1870.83 1928 1863.96 1928 1863.96 1921.13 1870.83 1921.13ZM1857.08 1928 1850.21 1928 1850.21 1921.13 1857.08 1921.13ZM1843.33 1928 1836.46 1928 1836.46 1921.13 1843.33 1921.13ZM1829.58 1928 1822.71 1928 1822.71 1921.13 1829.58 1921.13ZM1815.83 1928 1808.96 1928 1808.96 1921.13 1815.83 1921.13ZM1802.08 1928 1795.21 1928 1795.21 1921.13 1802.08 1921.13ZM1788.33 1928 1781.46 1928 1781.46 1921.13 1788.33 1921.13ZM1774.58 1928 1767.71 1928 1767.71 1921.13 1774.58 1921.13ZM1760.83 1928 1753.96 1928 1753.96 1921.13 1760.83 1921.13ZM1747.08 1928 1740.21 1928 1740.21 1921.13 1747.08 1921.13ZM1733.33 1928 1726.46 1928 1726.46 1921.13 1733.33 1921.13ZM1719.58 1928 1712.71 1928 1712.71 1921.13 1719.58 1921.13ZM1705.83 1928 1698.96 1928 1698.96 1921.13 1705.83 1921.13ZM1692.08 1928 1685.21 1928 1685.21 1921.13 1692.08 1921.13ZM1678.33 1928 1671.46 1928 1671.46 1921.13 1678.33 1921.13ZM1664.58 1928 1657.71 1928 1657.71 1921.13 1664.58 1921.13ZM1650.83 1928 1643.96 1928 1643.96 1921.13 1650.83 1921.13ZM1637.08 1928 1630.21 1928 1630.21 1921.13 1637.08 1921.13ZM1623.33 1928 1616.46 1928 1616.46 1921.13 1623.33 1921.13ZM1609.58 1928 1602.71 1928 1602.71 1921.13 1609.58 1921.13ZM1595.83 1928 1588.96 1928 1588.96 1921.13 1595.83 1921.13ZM1582.08 1928 1575.21 1928 1575.21 1921.13 1582.08 1921.13ZM1568.33 1928 1561.46 1928 1561.46 1921.13 1568.33 1921.13ZM1554.58 1928 1547.71 1928 1547.71 1921.13 1554.58 1921.13ZM1540.83 1928 1533.96 1928 1533.96 1921.13 1540.83 1921.13ZM1527.08 1928 1520.21 1928 1520.21 1921.13 1527.08 1921.13ZM1513.33 1928 1506.46 1928 1506.46 1921.13 1513.33 1921.13ZM1499.58 1928 1492.71 1928 1492.71 1921.13 1499.58 1921.13ZM1485.83 1928 1478.96 1928 1478.96 1921.13 1485.83 1921.13ZM1472.08 1928 1465.21 1928 1465.21 1921.13 1472.08 1921.13ZM1458.33 1928 1451.46 1928 1451.46 1921.13 1458.33 1921.13ZM1444.58 1928 1437.71 1928 1437.71 1921.13 1444.58 1921.13ZM1430.83 1928 1423.96 1928 1423.96 1921.13 1430.83 1921.13ZM1417.08 1928 1410.21 1928 1410.21 1921.13 1417.08 1921.13ZM1403.33 1928 1396.46 1928 1396.46 1921.13 1403.33 1921.13ZM1389.58 1928 1382.71 1928 1382.71 1921.13 1389.58 1921.13ZM1375.83 1928 1368.96 1928 1368.96 1921.13 1375.83 1921.13ZM1362.08 1928 1355.21 1928 1355.21 1921.13 1362.08 1921.13ZM1348.33 1928 1341.46 1928 1341.46 1921.13 1348.33 1921.13ZM1334.58 1928 1327.71 1928 1327.71 1921.13 1334.58 1921.13ZM1320.83 1928 1313.96 1928 1313.96 1921.13 1320.83 1921.13ZM1307.08 1928 1300.21 1928 1300.21 1921.13 1307.08 1921.13ZM1293.33 1928 1286.46 1928 1286.46 1921.13 1293.33 1921.13ZM1279.58 1928 1272.71 1928 1272.71 1921.13 1279.58 1921.13ZM1265.83 1928 1258.96 1928 1258.96 1921.13 1265.83 1921.13ZM1252.08 1928 1245.21 1928 1245.21 1921.13 1252.08 1921.13ZM1238.33 1928 1231.46 1928 1231.46 1921.13 1238.33 1921.13ZM1224.58 1928 1217.71 1928 1217.71 1921.13 1224.58 1921.13ZM1210.83 1928 1203.96 1928 1203.96 1921.13 1210.83 1921.13ZM1197.08 1928 1190.21 1928 1190.21 1921.13 1197.08 1921.13ZM1183.33 1928 1176.46 1928 1176.46 1921.13 1183.33 1921.13ZM1169.58 1928 1162.71 1928 1162.71 1921.13 1169.58 1921.13ZM1155.83 1928 1148.96 1928 1148.96 1921.13 1155.83 1921.13ZM1142.08 1928 1135.21 1928 1135.21 1921.13 1142.08 1921.13ZM1128.33 1928 1121.46 1928 1121.46 1921.13 1128.33 1921.13ZM1114.58 1928 1107.71 1928 1107.71 1921.13 1114.58 1921.13ZM1100.83 1928 1093.96 1928 1093.96 1921.13 1100.83 1921.13ZM1087.08 1928 1080.21 1928 1080.21 1921.13 1087.08 1921.13ZM1073.33 1928 1066.46 1928 1066.46 1921.13 1073.33 1921.13ZM1059.58 1928 1052.71 1928 1052.71 1921.13 1059.58 1921.13ZM1045.83 1928 1038.96 1928 1038.96 1921.13 1045.83 1921.13ZM1032.08 1928 1025.21 1928 1025.21 1921.13 1032.08 1921.13ZM1018.33 1928 1011.46 1928 1011.46 1921.13 1018.33 1921.13ZM1004.58 1928 997.707 1928 997.707 1921.13 1004.58 1921.13ZM990.832 1928 983.957 1928 983.957 1921.13 990.832 1921.13ZM977.082 1928 970.207 1928 970.207 1921.13 977.082 1921.13ZM963.332 1928 956.457 1928 956.457 1921.13 963.332 1921.13ZM949.582 1928 942.707 1928 942.707 1921.13 949.582 1921.13ZM935.832 1928 928.957 1928 928.957 1921.13 935.832 1921.13ZM922.082 1928 915.207 1928 915.207 1921.13 922.082 1921.13ZM908.332 1928 901.457 1928 901.457 1921.13 908.332 1921.13ZM894.582 1928 887.707 1928 887.707 1921.13 894.582 1921.13ZM880.832 1928 873.957 1928 873.957 1921.13 880.832 1921.13ZM867.082 1928 860.207 1928 860.207 1921.13 867.082 1921.13ZM853.332 1928 846.457 1928 846.457 1921.13 853.332 1921.13ZM839.582 1928 832.707 1928 832.707 1921.13 839.582 1921.13ZM825.832 1928 818.957 1928 818.957 1921.13 825.832 1921.13ZM812.082 1928 805.207 1928 805.207 1921.13 812.082 1921.13ZM798.332 1928 791.457 1928 791.457 1921.13 798.332 1921.13ZM784.582 1928 777.707 1928 777.707 1921.13 784.582 1921.13ZM774.937 1925.23 774.937 1932.11 768.062 1932.11 768.062 1925.23ZM774.937 1938.98 774.937 1945.86 768.062 1945.86 768.062 1938.98ZM774.937 1952.73 774.937 1956 768.062 1956 768.062 1952.73ZM785.25 1951.41 771.5 1978.91 757.75 1951.41Z" fill="#549E39"/><path d="M0 3.4375-155.139 3.4375-151.702 0-151.702 1937.84-155.139 1934.4 477.237 1934.4 473.8 1937.84 473.8 1782.78 480.675 1782.78 480.675 1941.28-158.577 1941.28-158.577-3.4375 0-3.4375ZM463.487 1787.37 477.237 1759.87 490.987 1787.37Z" fill="#549E39" transform="matrix(-6.12323e-17 -1 -1 6.12323e-17 2209.37 2173.74)"/><text font-family="Inter,Inter_MSFontService,sans-serif" font-weight="400" font-size="46" transform="matrix(1 0 0 1 802.161 1189)">Code </text><text font-family="Inter,Inter_MSFontService,sans-serif" font-weight="400" font-size="46" transform="matrix(1 0 0 1 931.067 1189)">state</text><text font-family="Inter,Inter_MSFontService,sans-serif" font-weight="400" font-size="46" transform="matrix(1 0 0 1 1041.07 1189)"> </text><text font-family="Inter,Inter_MSFontService,sans-serif" font-weight="400" font-size="46" transform="matrix(1 0 0 1 1334.28 2314)">a</text><text font-family="Inter,Inter_MSFontService,sans-serif" font-weight="400" font-size="46" transform="matrix(1 0 0 1 1360.06 2314)">ccess_token</text><text font-family="Inter,Inter_MSFontService,sans-serif" font-weight="400" font-size="46" transform="matrix(1 0 0 1 1630.48 2314)"> </text><text font-family="Inter,Inter_MSFontService,sans-serif" font-weight="400" font-size="46" transform="matrix(1 0 0 1 1332.53 2211)">(JSON </text><text font-family="Inter,Inter_MSFontService,sans-serif" font-weight="400" font-size="46" transform="matrix(1 0 0 1 1484.93 2211)">object</text><text font-family="Inter,Inter_MSFontService,sans-serif" font-weight="400" font-size="46" transform="matrix(1 0 0 1 1621.28 2211)">)</text><text font-family="Inter,Inter_MSFontService,sans-serif" font-weight="400" font-size="46" transform="matrix(1 0 0 1 1637.9 2211)"> </text><text font-family="Inter,Inter_MSFontService,sans-serif" font-weight="400" font-size="46" transform="matrix(1 0 0 1 1337.55 2103)">a</text><text font-family="Inter,Inter_MSFontService,sans-serif" font-weight="400" font-size="46" transform="matrix(1 0 0 1 1363.33 2103)">ccess_token</text><text font-family="Inter,Inter_MSFontService,sans-serif" font-weight="400" font-size="46" transform="matrix(1 0 0 1 1633.75 2103)"> </text><text font-family="Inter,Inter_MSFontService,sans-serif" font-weight="400" font-size="46" transform="matrix(1 0 0 1 1334.7 1723)">a</text><text font-family="Inter,Inter_MSFontService,sans-serif" font-weight="400" font-size="46" transform="matrix(1 0 0 1 1360.49 1723)">ccess_token</text><text font-family="Inter,Inter_MSFontService,sans-serif" font-weight="400" font-size="46" transform="matrix(1 0 0 1 1630.9 1723)"> </text><text font-family="Inter,Inter_MSFontService,sans-serif" font-weight="400" font-size="46" transform="matrix(1 0 0 1 1327.98 1831)">(JSON </text><text font-family="Inter,Inter_MSFontService,sans-serif" font-weight="400" font-size="46" transform="matrix(1 0 0 1 1480.38 1831)">object</text><text font-family="Inter,Inter_MSFontService,sans-serif" font-weight="400" font-size="46" transform="matrix(1 0 0 1 1616.73 1831)">)</text><text font-family="Inter,Inter_MSFontService,sans-serif" font-weight="400" font-size="46" transform="matrix(1 0 0 1 1633.35 1831)"> </text><text font-family="Inter,Inter_MSFontService,sans-serif" font-weight="400" font-size="46" transform="matrix(1 0 0 1 1213.7 968)">Client_id</text><text font-family="Inter,Inter_MSFontService,sans-serif" font-weight="400" font-size="46" transform="matrix(1 0 0 1 1399.32 968)">, </text><text font-family="Inter,Inter_MSFontService,sans-serif" font-weight="400" font-size="46" transform="matrix(1 0 0 1 1424.53 968)">response_type</text><text font-family="Inter,Inter_MSFontService,sans-serif" font-weight="400" font-size="46" transform="matrix(1 0 0 1 1744.22 968)">, </text><text font-family="Inter,Inter_MSFontService,sans-serif" font-weight="400" font-size="46" transform="matrix(1 0 0 1 1216.29 1023)">redirect_uri</text><text font-family="Inter,Inter_MSFontService,sans-serif" font-weight="400" font-size="46" transform="matrix(1 0 0 1 1461.5 1023)">, </text><text font-family="Inter,Inter_MSFontService,sans-serif" font-weight="400" font-size="46" transform="matrix(1 0 0 1 1486.71 1023)">state</text><text font-family="Inter,Inter_MSFontService,sans-serif" font-weight="400" font-size="46" transform="matrix(1 0 0 1 1596.71 1023)">, </text><text font-family="Inter,Inter_MSFontService,sans-serif" font-weight="400" font-size="46" transform="matrix(1 0 0 1 1621.91 1023)">scope</text><text font-family="Inter,Inter_MSFontService,sans-serif" font-weight="400" font-size="46" transform="matrix(1 0 0 1 1754.26 1023)"> </text><text font-family="Inter,Inter_MSFontService,sans-serif" font-weight="400" font-size="46" transform="matrix(1 0 0 1 1327.37 1346)">Client_id</text><text font-family="Inter,Inter_MSFontService,sans-serif" font-weight="400" font-size="46" transform="matrix(1 0 0 1 1512.99 1346)">, </text><text font-family="Inter,Inter_MSFontService,sans-serif" font-weight="400" font-size="46" transform="matrix(1 0 0 1 1538.2 1346)">client</text><text font-family="Inter,Inter_MSFontService,sans-serif" font-weight="400" font-size="46" transform="matrix(1 0 0 1 1656.22 1346)"> </text><text font-family="Inter,Inter_MSFontService,sans-serif" font-weight="400" font-size="46" transform="matrix(1 0 0 1 1287.84 1401)">secret</text><text font-family="Inter,Inter_MSFontService,sans-serif" font-weight="400" font-size="46" transform="matrix(1 0 0 1 1425.34 1401)">, </text><text font-family="Inter,Inter_MSFontService,sans-serif" font-weight="400" font-size="46" transform="matrix(1 0 0 1 1450.54 1401)">grant_type</text><text font-family="Inter,Inter_MSFontService,sans-serif" font-weight="400" font-size="46" transform="matrix(1 0 0 1 1683.15 1401)">, </text><text font-family="Inter,Inter_MSFontService,sans-serif" font-weight="400" font-size="46" transform="matrix(1 0 0 1 1302.16 1456)">code, </text><text font-family="Inter,Inter_MSFontService,sans-serif" font-weight="400" font-size="46" transform="matrix(1 0 0 1 1436.22 1456)">redirect_uri</text><text font-family="Inter,Inter_MSFontService,sans-serif" font-weight="400" font-size="46" transform="matrix(1 0 0 1 1681.43 1456)"> </text><text font-family="Inter,Inter_MSFontService,sans-serif" font-weight="400" font-size="46" transform="matrix(1 0 0 1 802.161 1525)">Access_token</text><text font-family="Inter,Inter_MSFontService,sans-serif" font-weight="400" font-size="46" transform="matrix(1 0 0 1 1103.52 1525)">, </text><text font-family="Inter,Inter_MSFontService,sans-serif" font-weight="400" font-size="46" transform="matrix(1 0 0 1 1128.72 1525)">token_type</text><text font-family="Inter,Inter_MSFontService,sans-serif" font-weight="400" font-size="46" transform="matrix(1 0 0 1 1369.92 1525)">, </text><text font-family="Inter,Inter_MSFontService,sans-serif" font-weight="400" font-size="46" transform="matrix(1 0 0 1 802.161 1580)">expires_in</text><text font-family="Inter,Inter_MSFontService,sans-serif" font-weight="400" font-size="46" transform="matrix(1 0 0 1 1019.3 1580)">, </text><text font-family="Inter,Inter_MSFontService,sans-serif" font-weight="400" font-size="46" transform="matrix(1 0 0 1 1044.5 1580)">refresh_token</text><text font-family="Inter,Inter_MSFontService,sans-serif" font-weight="400" font-size="46" transform="matrix(1 0 0 1 1344.14 1580)"> </text><text fill="#549E39" font-family="Inter,Inter_MSFontService,sans-serif" font-weight="400" font-size="46" transform="matrix(1 0 0 1 2022.67 1576)">Spotify Web API</text><text fill="#549E39" font-family="Inter,Inter_MSFontService,sans-serif" font-weight="400" font-size="46" transform="matrix(1 0 0 1 2374.44 1576)"> </text></g></svg>